<svg xmlns="http://www.w3.org/2000/svg" x="0px" y="0px"
width="50" height="50"
viewBox="0 0 172 172"
style=" fill:#000000;"><g transform=""><g fill="none" fill-rule="nonzero" stroke="none" stroke-width="1" stroke-linecap="butt" stroke-linejoin="miter" stroke-miterlimit="10" stroke-dasharray="" stroke-dashoffset="0" font-family="none" font-weight="none" font-size="none" text-anchor="none" style="mix-blend-mode: normal"><path d="M0,172v-172h172v172z" fill="none"></path><path d="M86,172c-47.49649,0 -86,-38.50351 -86,-86v0c0,-47.49649 38.50351,-86 86,-86h0c47.49649,0 86,38.50351 86,86v0c0,47.49649 -38.50351,86 -86,86z" fill="#198808"></path><g><path d="M25.78855,91.91878l10.14693,-10.14854l28.2609,29.06826l71.8633,-72.67066l10.155,10.155l-82.01668,81.22062z" fill="#ffffff"></path><path d="M136.06291,39.31268l9.00693,9.00693l-80.87507,80.09032l-37.25814,-36.49761l8.99078,-8.99078l27.11606,27.89113l1.14807,1.18036l1.15776,-1.17068l70.71361,-71.50967M136.05645,37.023l-71.85522,72.66259l-28.25767,-29.06503l-11.30307,11.30307l39.56074,38.75338l83.15829,-82.35093l-11.30307,-11.30307z" fill="#5e9c76"></path></g><path d="" fill="none"></path><path d="" fill="none"></path></g></g></svg>